<svg width="28" height="26" viewBox="0 0 28 26" fill="none" xmlns="http://www.w3.org/2000/svg">
<g clip-path="url(#clip0_745_51)">
<rect width="27" height="26" transform="translate(0.112793)" fill="white"/>
<path d="M9.82773 1.74036C9.92281 1.79519 10.0057 1.86752 10.0718 1.95322C10.1378 2.03892 10.1857 2.13632 10.2127 2.23984C10.2396 2.34336 10.2451 2.45097 10.2289 2.55654C10.2126 2.66212 10.175 2.76357 10.118 2.85511L5.82161 9.74999H21.404L17.1059 2.85511C16.9909 2.67022 16.9569 2.44891 17.0113 2.23985C17.0657 2.03079 17.2042 1.85112 17.3962 1.74036C17.5882 1.6296 17.818 1.59682 18.0351 1.64924C18.2522 1.70166 18.4388 1.83497 18.5538 2.01986L23.3716 9.74999H25.4253C25.8728 9.74999 26.3021 9.92119 26.6185 10.2259C26.935 10.5307 27.1128 10.944 27.1128 11.375V13C27.1128 13.431 26.935 13.8443 26.6185 14.149C26.3021 14.4538 25.8728 14.625 25.4253 14.625V21.9375C25.4253 23.0149 24.9808 24.0482 24.1896 24.8101C23.3985 25.572 22.3254 26 21.2065 26H6.01904C4.90016 26 3.82711 25.572 3.03594 24.8101C2.24477 24.0482 1.80029 23.0149 1.80029 21.9375V14.625C1.35274 14.625 0.923518 14.4538 0.60705 14.149C0.290583 13.8443 0.112793 13.431 0.112793 13V11.375C0.112793 10.944 0.290583 10.5307 0.60705 10.2259C0.923518 9.92119 1.35274 9.74999 1.80029 9.74999H3.85398L8.66842 2.01986C8.72536 1.9283 8.80047 1.84844 8.88947 1.78483C8.97846 1.72123 9.0796 1.67514 9.1871 1.64918C9.2946 1.62323 9.40636 1.61792 9.51599 1.63356C9.62562 1.64921 9.73098 1.6855 9.82604 1.74036H9.82773ZM3.48779 14.625V21.9375C3.48779 22.584 3.75448 23.2039 4.22918 23.6611C4.70388 24.1182 5.34771 24.375 6.01904 24.375H21.2065C21.8779 24.375 22.5217 24.1182 22.9964 23.6611C23.4711 23.2039 23.7378 22.584 23.7378 21.9375V14.625H3.48779ZM1.80029 11.375V13H25.4253V11.375H1.80029ZM6.86279 16.25C7.08657 16.25 7.30118 16.3356 7.45941 16.488C7.61765 16.6403 7.70654 16.847 7.70654 17.0625V21.9375C7.70654 22.153 7.61765 22.3596 7.45941 22.512C7.30118 22.6644 7.08657 22.75 6.86279 22.75C6.63902 22.75 6.42441 22.6644 6.26617 22.512C6.10794 22.3596 6.01904 22.153 6.01904 21.9375V17.0625C6.01904 16.847 6.10794 16.6403 6.26617 16.488C6.42441 16.3356 6.63902 16.25 6.86279 16.25ZM10.2378 16.25C10.4616 16.25 10.6762 16.3356 10.8344 16.488C10.9926 16.6403 11.0815 16.847 11.0815 17.0625V21.9375C11.0815 22.153 10.9926 22.3596 10.8344 22.512C10.6762 22.6644 10.4616 22.75 10.2378 22.75C10.014 22.75 9.79941 22.6644 9.64117 22.512C9.48294 22.3596 9.39404 22.153 9.39404 21.9375V17.0625C9.39404 16.847 9.48294 16.6403 9.64117 16.488C9.79941 16.3356 10.014 16.25 10.2378 16.25ZM13.6128 16.25C13.8366 16.25 14.0512 16.3356 14.2094 16.488C14.3676 16.6403 14.4565 16.847 14.4565 17.0625V21.9375C14.4565 22.153 14.3676 22.3596 14.2094 22.512C14.0512 22.6644 13.8366 22.75 13.6128 22.75C13.389 22.75 13.1744 22.6644 13.0162 22.512C12.8579 22.3596 12.769 22.153 12.769 21.9375V17.0625C12.769 16.847 12.8579 16.6403 13.0162 16.488C13.1744 16.3356 13.389 16.25 13.6128 16.25ZM16.9878 16.25C17.2116 16.25 17.4262 16.3356 17.5844 16.488C17.7426 16.6403 17.8315 16.847 17.8315 17.0625V21.9375C17.8315 22.153 17.7426 22.3596 17.5844 22.512C17.4262 22.6644 17.2116 22.75 16.9878 22.75C16.764 22.75 16.5494 22.6644 16.3912 22.512C16.2329 22.3596 16.144 22.153 16.144 21.9375V17.0625C16.144 16.847 16.2329 16.6403 16.3912 16.488C16.5494 16.3356 16.764 16.25 16.9878 16.25ZM20.3628 16.25C20.5866 16.25 20.8012 16.3356 20.9594 16.488C21.1176 16.6403 21.2065 16.847 21.2065 17.0625V21.9375C21.2065 22.153 21.1176 22.3596 20.9594 22.512C20.8012 22.6644 20.5866 22.75 20.3628 22.75C20.139 22.75 19.9244 22.6644 19.7662 22.512C19.6079 22.3596 19.519 22.153 19.519 21.9375V17.0625C19.519 16.847 19.6079 16.6403 19.7662 16.488C19.9244 16.3356 20.139 16.25 20.3628 16.25Z" fill="black"/>
</g>
<defs>
<clipPath id="clip0_745_51">
<rect width="27" height="26" fill="white" transform="translate(0.112793)"/>
</clipPath>
</defs>
</svg>
